<?xml version="1.0" encoding="UTF-8"?>
<svg id="_x32_" xmlns="http://www.w3.org/2000/svg" version="1.1" viewBox="0 0 512 512">
  <!-- Generator: Adobe Illustrator 29.4.0, SVG Export Plug-In . SVG Version: 2.1.0 Build 152)  -->
  <defs>
    <style>
      .st0 {
        fill: #fff;
      }
    </style>
  </defs>
  <path class="st0" d="M452.4,155.8c-36.6-36.7-87.9-59.6-143.8-59.6h-73.3V8.9L46.7,162.2l188.5,153.3v-86.5h73.3c19.7,0,36.9,7.8,49.9,20.7,12.9,13,20.6,30.2,20.7,49.9,0,19.7-7.8,36.9-20.7,49.9-13,12.9-30.2,20.6-49.9,20.7H0v132.8h308.6c56,0,107.2-22.9,143.8-59.6,36.7-36.6,59.6-87.9,59.6-143.8,0-56-22.9-107.2-59.6-143.8Z"/>
</svg>