<?xml version="1.0" encoding="UTF-8"?>
<svg id="_x32_" xmlns="http://www.w3.org/2000/svg" version="1.1" viewBox="0 0 512 512">
  <!-- Generator: Adobe Illustrator 29.4.0, SVG Export Plug-In . SVG Version: 2.1.0 Build 152)  -->
  <defs>
    <style>
      .st0 {
        fill: #fff;
      }
    </style>
  </defs>
  <path class="st0" d="M77.9,448.9c0,13.3,1.6,25.7,5.3,36,5,13.6,13.5,23.5,26.3,26.3,2.6.5,5.3.8,8.1.8h277.4c.7,0,1.4,0,1.9,0,26.5-1.7,37.3-29.2,37.3-63l11.1-269.3H66.7l11.1,269.3ZM331.5,239.7h52.7v212.3h-52.7v-212.3ZM229.7,239.7h52.7v212.3h-52.7v-212.3h0ZM127.8,239.7h52.8v212.3h-52.8s0-212.3,0-212.3Z"/>
  <path class="st0" d="M368.7,89.3c0-2,.2-4.1.2-6.1v-5.6C368.9,34.8,334.1,0,291.3,0h-70.7C177.8,0,143,34.8,143,77.6v5.6c0,2,.2,4.1.3,6.1H28.7v62.6h454.6v-62.6h-114.6ZM320.2,83.2c0,2.1-.2,4.1-.6,6.1h-127.2c-.4-1.9-.6-4-.6-6.1v-5.6c0-15.9,13-28.9,28.9-28.9h70.7c16,0,28.9,13,28.9,28.9v5.6Z"/>
</svg>