<?xml version="1.0" encoding="UTF-8"?>
<svg id="_x32_" xmlns="http://www.w3.org/2000/svg" version="1.1" viewBox="0 0 512 512">
  <!-- Generator: Adobe Illustrator 29.4.0, SVG Export Plug-In . SVG Version: 2.1.0 Build 152)  -->
  <defs>
    <style>
      .st0 {
        fill: #fff;
      }
    </style>
  </defs>
  <polygon class="st0" points="93.5 218.6 275 218.6 354.7 138.9 355.4 138.1 355.4 125 93.5 125 93.5 218.6"/>
  <polygon class="st0" points="402.2 433.7 46.8 433.7 46.8 78.3 402.2 78.3 402.2 91.5 449 56.6 449 31.5 0 31.5 0 480.5 449 480.5 449 289.2 402.2 336 402.2 433.7"/>
  <path class="st0" d="M229.4,274.7H93.5v28.1h120.5c4.6-9.9,9.9-19.5,15.3-28.1Z"/>
  <path class="st0" d="M93.5,349.5v28.1h110.9c-3.3-8.8-4.3-18.3-3.6-28.1h-107.3Z"/>
  <path class="st0" d="M290.9,268.8c-15.5,15.5-55.6,80.8-40.1,96.3,15.5,15.5,80.8-24.6,96.3-40.1l63.8-63.8-56.2-56.1-63.8,63.8Z"/>
  <path class="st0" d="M500.4,115.5c-15.5-15.5-40.6-15.5-56.1,0l-76.7,76.7,56.2,56.1,76.7-76.7c15.5-15.5,15.5-40.6,0-56.1ZM400.2,202.4l-9.6-9.6,53.7-53.7,9.6,9.6-53.7,53.7Z"/>
</svg>