<?xml version="1.0" encoding="UTF-8"?>
<svg id="_x32_" xmlns="http://www.w3.org/2000/svg" version="1.1" viewBox="0 0 512 512">
  <!-- Generator: Adobe Illustrator 29.4.0, SVG Export Plug-In . SVG Version: 2.1.0 Build 152)  -->
  <path d="M176,156.5c12.2-12.2,19.9-29.3,19.9-47.9s-7.6-35.7-19.9-48c-12.2-12.2-29.3-19.9-47.9-19.8-18.7,0-35.7,7.6-47.9,19.9-12.2,12.2-19.9,29.3-19.8,47.9,0,18.7,7.6,35.7,19.8,47.9,12.2,12.2,29.3,19.9,47.9,19.9,18.7,0,35.7-7.6,47.9-19.9ZM99.2,108.6c0-8,3.2-15.1,8.4-20.4,5.3-5.3,12.4-8.4,20.4-8.4,8,0,15.1,3.2,20.4,8.4,5.2,5.3,8.4,12.4,8.4,20.4s-3.2,15.1-8.4,20.4c-5.3,5.2-12.4,8.4-20.4,8.4s-15.1-3.2-20.4-8.4c-5.3-5.3-8.4-12.4-8.4-20.4Z"/>
  <path d="M284.8,176.4c21.3,0,40.8-8.7,54.8-22.7,14-13.9,22.7-33.5,22.7-54.8,0-21.3-8.7-40.8-22.7-54.8-14-14-33.5-22.7-54.8-22.7-21.3,0-40.8,8.7-54.8,22.7-14,14-22.7,33.5-22.7,54.8s8.7,40.8,22.7,54.8c13.9,14,33.5,22.7,54.8,22.7ZM261.5,75.6c6-6,14.1-9.6,23.3-9.7,9.2,0,17.3,3.7,23.3,9.7,6,6,9.6,14.1,9.6,23.3,0,9.2-3.7,17.3-9.6,23.3-6,6-14.1,9.6-23.3,9.6s-17.3-3.7-23.3-9.6c-6-6-9.7-14.1-9.7-23.3s3.7-17.3,9.7-23.3Z"/>
  <path d="M290.3,186.1H113.2c-8.4,0-16.1,3.4-21.5,8.9-5.5,5.5-8.9,13.2-8.9,21.5v98.6c0,8.4,3.4,16.1,8.9,21.5,5.5,5.5,13.2,8.9,21.5,8.9h177.1c8.4,0,16.1-3.4,21.6-8.9,5.5-5.5,8.9-13.2,8.9-21.5v-98.6c0-8.4-3.4-16.1-8.9-21.5-5.5-5.5-13.2-8.9-21.6-8.9Z"/>
  <path d="M435.8,189.7c-5.1-3.1-11-4.7-16.8-4.7s-10.6,1.3-15.5,3.9l-64.9,34.6v85.8l64.9,34.6c4.9,2.6,10.1,3.9,15.5,3.9s11.7-1.5,16.9-4.7c9.8-5.9,15.9-16.6,15.9-28.1v-97.1c0-11.5-6.1-22.2-15.9-28.1Z"/>
  <path d="M245.5,382h18.6v-23.3h-121.2v23.3h16.7l-34.6,76.1c-1.9,4.2,0,9,4.1,10.9l11.5,5.2c4.2,1.9,9,0,10.9-4.1l35.3-77.8v90c0,4.6,3.7,8.2,8.2,8.2h14.9c4.5,0,8.2-3.7,8.2-8.2v-90l35.3,77.7c1.9,4.1,6.8,6,10.9,4.1l11.5-5.2c4.2-1.9,6-6.8,4.1-10.9l-34.6-76.1Z"/>
</svg>