<?xml version="1.0" encoding="UTF-8"?>
<svg id="_x32_" xmlns="http://www.w3.org/2000/svg" version="1.1" viewBox="0 0 512 512">
  <!-- Generator: Adobe Illustrator 29.4.0, SVG Export Plug-In . SVG Version: 2.1.0 Build 152)  -->
  <polygon points="253.4 256.2 216 256.2 235.6 490 248.4 490 260.7 490 273.7 490 293.3 256.2 255.9 256.2 253.4 256.2"/>
  <polygon points="302.2 490 348 490 388.3 256.2 331.6 256.2 302.2 490"/>
  <polygon points="121 256.2 161.3 490 207.1 490 177.7 256.2 121 256.2"/>
  <path d="M401.5,173.3c-4.6-5.8-10.3-10.6-16.7-14.3.6-3.1,1-6.3,1-9.6,0-14.2-5.5-27.3-14.4-36.9-6.7-7.3-15.3-12.8-25.1-15.6-6.5-16.2-19.8-28.7-36.4-34.1-4.4-23.2-24.7-40.7-49.1-40.7s-22.4,4-30.8,10.7c-6,4.7-10.8,10.9-14.2,17.9-19.4,6-34.5,21.5-40.1,41-25.6,6.1-44.6,29.1-44.6,56.6,0,.7.1,1.4.1,2.1-8,4.6-15,10.7-20.5,18.1-7.9,10.7-12.5,24.1-12.5,38.4,0,13.5,4.1,26,11.1,36.4h37.8v-5c-3.2-1.7-6.2-3.7-8.8-6.2-6.5-6.5-10.4-15.3-10.4-25.1s2.5-15,6.8-20.9c4.3-5.9,10.4-10.4,17.4-12.8l13.1-4.4-3.5-13.4c-.6-2.5-1-4.8-1-7.2,0-15.5,12.4-28.1,27.9-28.5l13.5-.3,1-13.4c1.1-14.3,12-26,26-28.1l9.7-1.5,2.5-9.5c1.1-4.4,3.7-8.2,7.1-10.9,3.5-2.7,7.7-4.3,12.4-4.3,5.7,0,10.7,2.3,14.4,6,3.6,3.7,5.8,8.5,5.9,14.1,0,.4-.1.9-.2,1.7l-1.1,14.5,14.4,1.4c12.9,1.2,23.5,10.9,26.1,23.4l2.3,10.7,10.9,1c6.4.6,12,3.5,16.1,8,4.1,4.5,6.5,10.3,6.6,16.9,0,4-1,7.8-2.7,11.2l-8.2,16.4,17.7,4.6c6.1,1.6,11.5,5.2,15.3,10,3.8,4.9,6,10.9,6,17.5,0,7.9-5.2,23.4-16.8,29.8l-.5,4.2h35.9c6.9-9.6,11-21.3,11-34,0-13.5-4.6-26-12.4-35.9Z"/>
</svg>